<svg width="30" height="30" viewBox="0 0 30 30" fill="none" xmlns="http://www.w3.org/2000/svg">
<path d="M14.9917 13.5438C16.8313 13.5438 18.5084 13.6515 19.6016 13.8138C19.6044 13.8163 19.6317 13.8226 19.6776 13.832L19.9909 13.8947C20.3909 13.976 20.9917 14.108 21.2608 14.2474C22.0263 14.6442 22.5 15.4201 22.5 16.2506V16.3228C22.4821 16.8642 22.0071 18.0015 21.9905 18.0015C21.1878 19.9146 18.6915 23.6864 17.0323 25.2027L16.9755 25.2588C16.8506 25.3811 16.5464 25.6721 16.3397 25.8164C15.9569 26.1055 15.4833 26.25 15.0096 26.25C14.4809 26.25 13.9894 26.0877 13.5873 25.7809C13.5143 25.7086 13.2059 25.4386 12.9498 25.185C11.3457 23.7055 8.72269 19.8424 7.91996 17.8215C7.7919 17.5147 7.51928 16.7388 7.5 16.3228C7.5 15.926 7.59225 15.5469 7.774 15.1856C8.02873 14.7342 8.43079 14.3742 8.90444 14.1751C9.23215 14.0483 10.2166 13.8492 10.2345 13.8492C11.3099 13.6515 13.0586 13.5438 14.9917 13.5438ZM15.0006 3.75C16.0484 3.75 16.8979 4.59135 16.8979 5.62907L16.489 10.2531C16.489 11.0672 15.8226 11.7272 15.0006 11.7272C14.1772 11.7272 13.5121 11.0672 13.5121 10.2531L13.1032 5.62907C13.1032 4.59135 13.9527 3.75 15.0006 3.75Z" fill="#333333"/>
</svg>
