<svg width="157" height="36" viewBox="0 0 157 36" fill="none" xmlns="http://www.w3.org/2000/svg">
<path fill-rule="evenodd" clip-rule="evenodd" d="M17.5711 4.41723C19.4464 5.32466 20.5 6.5554 20.5 7.83871H10.5L0.5 7.83871C0.5 6.5554 1.55357 5.32466 3.42893 4.41722C5.3043 3.50979 7.84784 3 10.5 3C13.1522 3 15.6957 3.50979 17.5711 4.41723ZM3.42893 31.5828C1.55357 30.6753 0.5 29.4446 0.5 28.1613H10.5L20.5 28.1613C20.5 29.4446 19.4464 30.6753 17.5711 31.5828C15.6957 32.4902 13.1522 33 10.5 33C7.84783 33 5.3043 32.4902 3.42893 31.5828ZM23.5 20.4194V24.2903H17.5V20.4194H23.5ZM6.5 11.7097H0.5V15.5806H6.5V11.7097ZM11.5 11.7097H23.5V15.5806H11.5V11.7097ZM12.5 20.4194H0.5V24.2903H12.5V20.4194Z" fill="#A6A6A6"/>
<path d="M41.3409 29.2663C40.098 29.2663 38.9723 28.9467 37.9638 28.3075C36.9624 27.6612 36.1669 26.7131 35.5774 25.4631C34.995 24.206 34.7038 22.6648 34.7038 20.8395C34.7038 18.9645 35.0057 17.4055 35.6094 16.1626C36.2131 14.9126 37.0156 13.9787 38.017 13.3608C39.0256 12.7358 40.13 12.4233 41.3303 12.4233C42.2464 12.4233 43.0099 12.5795 43.6207 12.892C44.2386 13.1974 44.7358 13.581 45.1122 14.0426C45.4957 14.4972 45.7869 14.9446 45.9858 15.3849H46.1243V7.18182H50.652V29H46.1776V26.3793H45.9858C45.7727 26.8338 45.4709 27.2848 45.0803 27.7322C44.6967 28.1726 44.196 28.5384 43.5781 28.8295C42.9673 29.1207 42.2216 29.2663 41.3409 29.2663ZM42.7791 25.6548C43.5107 25.6548 44.1286 25.456 44.6328 25.0582C45.1442 24.6534 45.5348 24.0888 45.8047 23.3643C46.0817 22.6399 46.2202 21.7912 46.2202 20.8182C46.2202 19.8452 46.0852 19 45.8153 18.2827C45.5455 17.5653 45.1548 17.0114 44.6435 16.6207C44.1321 16.2301 43.5107 16.0348 42.7791 16.0348C42.0334 16.0348 41.4048 16.2372 40.8935 16.642C40.3821 17.0469 39.995 17.608 39.7322 18.3253C39.4695 19.0426 39.3381 19.8736 39.3381 20.8182C39.3381 21.7699 39.4695 22.6115 39.7322 23.343C40.0021 24.0675 40.3892 24.6357 40.8935 25.0476C41.4048 25.4524 42.0334 25.6548 42.7791 25.6548ZM61.8407 29.3196C60.1575 29.3196 58.7086 28.9787 57.4941 28.2969C56.2868 27.608 55.3564 26.6349 54.7029 25.3778C54.0495 24.1136 53.7228 22.6186 53.7228 20.8928C53.7228 19.2095 54.0495 17.7322 54.7029 16.4609C55.3564 15.1896 56.2761 14.1989 57.4622 13.4886C58.6554 12.7784 60.0545 12.4233 61.6596 12.4233C62.7392 12.4233 63.7441 12.5973 64.6745 12.9453C65.612 13.2862 66.4288 13.8011 67.1248 14.4901C67.8279 15.179 68.3748 16.0455 68.7654 17.0895C69.1561 18.1264 69.3514 19.3409 69.3514 20.733V21.9794H55.5339V19.1669H65.0794C65.0794 18.5135 64.9373 17.9347 64.6532 17.4304C64.3691 16.9261 63.975 16.532 63.4707 16.2479C62.9735 15.9567 62.3947 15.8111 61.7342 15.8111C61.0453 15.8111 60.4345 15.9709 59.9018 16.2905C59.3762 16.603 58.9643 17.0256 58.666 17.5582C58.3677 18.0838 58.215 18.6697 58.2079 19.3161V21.9901C58.2079 22.7997 58.3571 23.4993 58.6554 24.0888C58.9608 24.6783 59.3904 25.1328 59.9444 25.4524C60.4984 25.772 61.1554 25.9318 61.9153 25.9318C62.4196 25.9318 62.8812 25.8608 63.3002 25.7188C63.7193 25.5767 64.0779 25.3636 64.3762 25.0795C64.6745 24.7955 64.9018 24.4474 65.0581 24.0355L69.2555 24.3125C69.0424 25.321 68.6056 26.2017 67.9451 26.9545C67.2917 27.7003 66.4466 28.2827 65.4096 28.7017C64.3798 29.1136 63.1902 29.3196 61.8407 29.3196ZM85.9281 17.3026L81.7733 17.5582C81.7022 17.2031 81.5495 16.8835 81.3152 16.5994C81.0808 16.3082 80.7718 16.0774 80.3883 15.907C80.0119 15.7294 79.5609 15.6406 79.0353 15.6406C78.3322 15.6406 77.7392 15.7898 77.2562 16.0881C76.7733 16.3793 76.5318 16.7699 76.5318 17.2599C76.5318 17.6506 76.688 17.9808 77.0005 18.2507C77.313 18.5206 77.8493 18.7372 78.6092 18.9006L81.5708 19.4972C83.1618 19.8239 84.3478 20.3494 85.1291 21.0739C85.9103 21.7983 86.301 22.75 86.301 23.929C86.301 25.0014 85.9849 25.9425 85.3528 26.7521C84.7278 27.5618 83.8684 28.1939 82.7747 28.6484C81.688 29.0959 80.4345 29.3196 79.014 29.3196C76.8478 29.3196 75.122 28.8686 73.8365 27.9666C72.5581 27.0575 71.8088 25.8217 71.5886 24.2592L76.0524 24.0249C76.1873 24.6854 76.514 25.1896 77.0325 25.5376C77.551 25.8786 78.215 26.049 79.0247 26.049C79.8201 26.049 80.4593 25.8963 80.9423 25.5909C81.4324 25.2784 81.6809 24.8771 81.688 24.3871C81.6809 23.9751 81.5069 23.6378 81.166 23.375C80.8251 23.1051 80.2995 22.8991 79.5893 22.7571L76.7555 22.1925C75.1575 21.8729 73.9679 21.3189 73.1866 20.5305C72.4125 19.7422 72.0254 18.7372 72.0254 17.5156C72.0254 16.4645 72.3095 15.5589 72.8777 14.799C73.4529 14.0391 74.2591 13.4531 75.296 13.0412C76.34 12.6293 77.5616 12.4233 78.9608 12.4233C81.0275 12.4233 82.6539 12.8601 83.84 13.7337C85.0332 14.6072 85.7292 15.7969 85.9281 17.3026ZM96.5522 29.3196C94.8761 29.3196 93.4343 28.9645 92.2269 28.2543C91.0266 27.5369 90.1033 26.5426 89.457 25.2713C88.8178 24 88.4982 22.5369 88.4982 20.8821C88.4982 19.206 88.8214 17.7358 89.4677 16.4716C90.1211 15.2003 91.0479 14.2095 92.2482 13.4993C93.4485 12.782 94.8761 12.4233 96.5309 12.4233C97.9585 12.4233 99.2085 12.6825 100.281 13.201C101.353 13.7195 102.202 14.4474 102.827 15.3849C103.452 16.3224 103.797 17.4233 103.86 18.6875H99.5778C99.457 17.8707 99.1374 17.2138 98.619 16.7166C98.1076 16.2124 97.4364 15.9602 96.6055 15.9602C95.9023 15.9602 95.288 16.152 94.7624 16.5355C94.244 16.9119 93.8391 17.4624 93.5479 18.1868C93.2567 18.9112 93.1112 19.7884 93.1112 20.8182C93.1112 21.8622 93.2532 22.75 93.5373 23.4815C93.8285 24.2131 94.2369 24.7706 94.7624 25.1541C95.288 25.5376 95.9023 25.7294 96.6055 25.7294C97.1239 25.7294 97.5891 25.6229 98.0011 25.4098C98.4201 25.1967 98.7646 24.8878 99.0344 24.483C99.3114 24.071 99.4925 23.5774 99.5778 23.0021H103.86C103.789 24.2521 103.449 25.353 102.838 26.3047C102.234 27.2493 101.4 27.9879 100.334 28.5206C99.2688 29.0533 98.0082 29.3196 96.5522 29.3196ZM106.766 29V12.6364H111.166V15.4915H111.336C111.635 14.4759 112.135 13.7088 112.839 13.1903C113.542 12.6648 114.351 12.402 115.268 12.402C115.495 12.402 115.74 12.4162 116.003 12.4446C116.265 12.473 116.496 12.5121 116.695 12.5618V16.5888C116.482 16.5249 116.187 16.468 115.811 16.4183C115.434 16.3686 115.09 16.3438 114.778 16.3438C114.11 16.3438 113.513 16.4893 112.988 16.7805C112.469 17.0646 112.057 17.4624 111.752 17.9737C111.454 18.4851 111.305 19.0746 111.305 19.7422V29H106.766ZM119.042 29V12.6364H123.58V29H119.042ZM121.321 10.527C120.647 10.527 120.068 10.3033 119.585 9.85582C119.109 9.40128 118.871 8.85795 118.871 8.22585C118.871 7.60085 119.109 7.06463 119.585 6.61719C120.068 6.16264 120.647 5.93537 121.321 5.93537C121.996 5.93537 122.571 6.16264 123.047 6.61719C123.53 7.06463 123.772 7.60085 123.772 8.22585C123.772 8.85795 123.53 9.40128 123.047 9.85582C122.571 10.3033 121.996 10.527 121.321 10.527ZM127.215 35.1364V12.6364H131.69V15.3849H131.892C132.091 14.9446 132.379 14.4972 132.755 14.0426C133.139 13.581 133.636 13.1974 134.247 12.892C134.865 12.5795 135.632 12.4233 136.548 12.4233C137.741 12.4233 138.842 12.7358 139.85 13.3608C140.859 13.9787 141.665 14.9126 142.269 16.1626C142.872 17.4055 143.174 18.9645 143.174 20.8395C143.174 22.6648 142.879 24.206 142.29 25.4631C141.708 26.7131 140.912 27.6612 139.904 28.3075C138.902 28.9467 137.78 29.2663 136.537 29.2663C135.656 29.2663 134.907 29.1207 134.289 28.8295C133.678 28.5384 133.178 28.1726 132.787 27.7322C132.396 27.2848 132.098 26.8338 131.892 26.3793H131.754V35.1364H127.215ZM131.658 20.8182C131.658 21.7912 131.793 22.6399 132.063 23.3643C132.333 24.0888 132.723 24.6534 133.235 25.0582C133.746 25.456 134.367 25.6548 135.099 25.6548C135.838 25.6548 136.463 25.4524 136.974 25.0476C137.485 24.6357 137.872 24.0675 138.135 23.343C138.405 22.6115 138.54 21.7699 138.54 20.8182C138.54 19.8736 138.409 19.0426 138.146 18.3253C137.883 17.608 137.496 17.0469 136.985 16.642C136.473 16.2372 135.845 16.0348 135.099 16.0348C134.36 16.0348 133.735 16.2301 133.224 16.6207C132.72 17.0114 132.333 17.5653 132.063 18.2827C131.793 19 131.658 19.8452 131.658 20.8182ZM154.904 12.6364V16.0455H145.049V12.6364H154.904ZM147.286 8.71591H151.825V23.9716C151.825 24.3906 151.889 24.7173 152.017 24.9517C152.144 25.179 152.322 25.3388 152.549 25.4311C152.784 25.5234 153.053 25.5696 153.359 25.5696C153.572 25.5696 153.785 25.5518 153.998 25.5163C154.211 25.4737 154.374 25.4418 154.488 25.4205L155.202 28.7976C154.975 28.8686 154.655 28.9503 154.243 29.0426C153.831 29.142 153.33 29.2024 152.741 29.2237C151.647 29.2663 150.688 29.1207 149.865 28.7869C149.048 28.4531 148.412 27.9347 147.958 27.2315C147.503 26.5284 147.279 25.6406 147.286 24.5682V8.71591Z" fill="#A6A6A6"/>
</svg>
