<svg width="30" height="30" viewBox="0 0 30 30" fill="none" xmlns="http://www.w3.org/2000/svg">
<path d="M15 2.5C21.9 2.5 27.5 8.1 27.5 15C27.5 21.9125 21.9 27.5 15 27.5C8.0875 27.5 2.5 21.9125 2.5 15C2.5 8.1 8.0875 2.5 15 2.5ZM19.8125 10.8875C19.95 10.45 19.55 10.0375 19.1125 10.175L12.7125 12.175C12.45 12.2625 12.2375 12.4625 12.1625 12.725L10.1625 19.1375C10.025 19.5625 10.4375 19.975 10.8625 19.8375L17.2375 17.8375C17.5 17.7625 17.7125 17.55 17.7875 17.2875L19.8125 10.8875Z" fill="#333333"/>
</svg>
