<svg width="114" height="36" viewBox="0 0 114 36" fill="none" xmlns="http://www.w3.org/2000/svg">
<path d="M0.696 35V1.16H22.824V6.056H6.84V15.608H21.816V20.504H6.84V35H0.696ZM27.0731 35V1.16H33.0731V14.936C33.8731 13.656 34.9451 12.696 36.2891 12.056C37.6331 11.384 39.1211 11.048 40.7531 11.048C46.2891 11.048 49.0571 14.264 49.0571 20.696V35H43.0571V20.984C43.0571 19.16 42.7051 17.832 42.0011 17C41.3291 16.168 40.2731 15.752 38.8331 15.752C37.0731 15.752 35.6651 16.312 34.6091 17.432C33.5851 18.52 33.0731 19.976 33.0731 21.8V35H27.0731ZM54.7673 6.488V0.631999H61.4873V6.488H54.7673ZM55.1513 35V11.528H61.1513V35H55.1513ZM64.1216 35L73.9616 22.856L64.7456 11.528H71.7536L77.4176 18.776L83.0816 11.528H90.0896L80.8256 22.904L90.7136 35H83.6576L77.3696 27.08L71.1296 35H64.1216ZM101.176 35.48C99.4801 35.48 97.9601 35.16 96.6161 34.52C95.3041 33.848 94.2641 32.952 93.4961 31.832C92.7601 30.712 92.3921 29.448 92.3921 28.04C92.3921 26.312 92.8401 24.952 93.7361 23.96C94.6321 22.936 96.0881 22.2 98.1041 21.752C100.12 21.304 102.824 21.08 106.216 21.08H107.896V20.072C107.896 18.472 107.544 17.32 106.84 16.616C106.136 15.912 104.952 15.56 103.288 15.56C101.976 15.56 100.632 15.768 99.2561 16.184C97.8801 16.568 96.4881 17.176 95.0801 18.008L93.3521 13.928C94.1841 13.352 95.1601 12.856 96.2801 12.44C97.4321 11.992 98.6321 11.656 99.8801 11.432C101.16 11.176 102.36 11.048 103.48 11.048C106.904 11.048 109.448 11.848 111.112 13.448C112.776 15.016 113.608 17.464 113.608 20.792V35H107.992V31.256C107.448 32.568 106.584 33.608 105.4 34.376C104.216 35.112 102.808 35.48 101.176 35.48ZM102.424 31.352C103.992 31.352 105.288 30.808 106.312 29.72C107.368 28.632 107.896 27.256 107.896 25.592V24.536H106.264C103.256 24.536 101.16 24.776 99.9761 25.256C98.8241 25.704 98.2481 26.536 98.2481 27.752C98.2481 28.808 98.6161 29.672 99.3521 30.344C100.088 31.016 101.112 31.352 102.424 31.352Z" fill="#54BD95"/>
</svg>
