<svg width="200" height="36" viewBox="0 0 200 36" fill="none" xmlns="http://www.w3.org/2000/svg">
<circle cx="15.5" cy="18" r="15" fill="#A6A6A6"/>
<path d="M21.5 18C21.5 21.866 18.366 25 14.5 25C10.634 25 7.5 21.866 7.5 18C7.5 14.134 10.634 11 14.5 11C16.4587 11 18.2295 11.8045 19.5 13.101" stroke="white" stroke-width="2"/>
<path d="M17.5 20L21.5 18L24 21.5" stroke="white" stroke-width="2"/>
<path d="M49.6832 35.4773C48.2131 35.4773 46.9524 35.2749 45.9013 34.87C44.8572 34.4723 44.0263 33.929 43.4084 33.2401C42.7905 32.5511 42.3892 31.777 42.2045 30.9176L46.402 30.353C46.5298 30.6797 46.7322 30.9851 47.0092 31.2692C47.2862 31.5533 47.652 31.7805 48.1065 31.951C48.5682 32.1286 49.1293 32.2173 49.7898 32.2173C50.777 32.2173 51.5902 31.9759 52.2294 31.4929C52.8757 31.017 53.1989 30.218 53.1989 29.0959V26.1023H53.0071C52.8082 26.5568 52.5099 26.9865 52.1122 27.3913C51.7145 27.7962 51.2031 28.1264 50.5781 28.3821C49.9531 28.6378 49.2074 28.7656 48.3409 28.7656C47.1122 28.7656 45.9936 28.4815 44.9851 27.9134C43.9837 27.3381 43.1847 26.4609 42.5881 25.282C41.9986 24.0959 41.7038 22.5973 41.7038 20.7862C41.7038 18.9325 42.0057 17.3842 42.6094 16.1413C43.2131 14.8984 44.0156 13.968 45.017 13.3501C46.0256 12.7322 47.13 12.4233 48.3303 12.4233C49.2464 12.4233 50.0135 12.5795 50.6314 12.892C51.2493 13.1974 51.7464 13.581 52.1229 14.0426C52.5064 14.4972 52.8011 14.9446 53.0071 15.3849H53.1776V12.6364H57.6839V29.1598C57.6839 30.5518 57.343 31.7166 56.6612 32.6541C55.9794 33.5916 55.0348 34.2947 53.8274 34.7635C52.6271 35.2393 51.2457 35.4773 49.6832 35.4773ZM49.7791 25.3565C50.5107 25.3565 51.1286 25.1754 51.6328 24.8132C52.1442 24.4439 52.5348 23.9183 52.8047 23.2365C53.0817 22.5476 53.2202 21.7237 53.2202 20.7649C53.2202 19.8061 53.0852 18.9751 52.8153 18.272C52.5455 17.5618 52.1548 17.0114 51.6435 16.6207C51.1321 16.2301 50.5107 16.0348 49.7791 16.0348C49.0334 16.0348 48.4048 16.2372 47.8935 16.642C47.3821 17.0398 46.995 17.5937 46.7322 18.304C46.4695 19.0142 46.3381 19.8345 46.3381 20.7649C46.3381 21.7095 46.4695 22.5263 46.7322 23.2152C47.0021 23.897 47.3892 24.4261 47.8935 24.8026C48.4048 25.1719 49.0334 25.3565 49.7791 25.3565ZM61.2955 29V12.6364H65.6953V15.4915H65.8658C66.1641 14.4759 66.6648 13.7088 67.3679 13.1903C68.071 12.6648 68.8807 12.402 69.7969 12.402C70.0241 12.402 70.2692 12.4162 70.532 12.4446C70.7947 12.473 71.0256 12.5121 71.2244 12.5618V16.5888C71.0114 16.5249 70.7166 16.468 70.3402 16.4183C69.9638 16.3686 69.6193 16.3438 69.3068 16.3438C68.6392 16.3438 68.0426 16.4893 67.517 16.7805C66.9986 17.0646 66.5866 17.4624 66.2812 17.9737C65.983 18.4851 65.8338 19.0746 65.8338 19.7422V29H61.2955ZM77.7683 29.3089C76.7243 29.3089 75.7939 29.1278 74.9771 28.7656C74.1603 28.3963 73.514 27.853 73.0382 27.1357C72.5694 26.4112 72.335 25.5092 72.335 24.4297C72.335 23.5206 72.502 22.7571 72.8358 22.1392C73.1696 21.5213 73.6241 21.0241 74.1994 20.6477C74.7747 20.2713 75.4281 19.9872 76.1596 19.7955C76.8983 19.6037 77.6724 19.4688 78.4821 19.3906C79.4338 19.2912 80.2008 19.1989 80.7832 19.1136C81.3656 19.0213 81.7882 18.8864 82.051 18.7088C82.3137 18.5312 82.4451 18.2685 82.4451 17.9205V17.8565C82.4451 17.1818 82.2321 16.6598 81.8059 16.2905C81.3869 15.9212 80.7903 15.7365 80.0162 15.7365C79.1994 15.7365 78.5495 15.9176 78.0666 16.2798C77.5836 16.6349 77.264 17.0824 77.1078 17.6222L72.9103 17.2812C73.1234 16.2869 73.5424 15.4276 74.1674 14.7031C74.7924 13.9716 75.5985 13.4105 76.5858 13.0199C77.5801 12.6222 78.7306 12.4233 80.0375 12.4233C80.9466 12.4233 81.8166 12.5298 82.6476 12.7429C83.4856 12.956 84.2278 13.2862 84.8741 13.7337C85.5275 14.1811 86.0424 14.7564 86.4189 15.4595C86.7953 16.1555 86.9835 16.9901 86.9835 17.9631V29H82.6795V26.7308H82.5517C82.2889 27.2422 81.9373 27.6932 81.497 28.0838C81.0566 28.4673 80.5275 28.7692 79.9096 28.9893C79.2917 29.2024 78.5779 29.3089 77.7683 29.3089ZM79.068 26.1768C79.7356 26.1768 80.3251 26.0455 80.8365 25.7827C81.3478 25.5128 81.7491 25.1506 82.0403 24.696C82.3315 24.2415 82.4771 23.7266 82.4771 23.1513V21.4148C82.3351 21.5071 82.1397 21.5923 81.8912 21.6705C81.6497 21.7415 81.3762 21.8089 81.0708 21.8729C80.7654 21.9297 80.46 21.983 80.1547 22.0327C79.8493 22.0753 79.5723 22.1143 79.3237 22.1499C78.791 22.228 78.3258 22.3523 77.9281 22.5227C77.5304 22.6932 77.2214 22.924 77.0012 23.2152C76.7811 23.4993 76.671 23.8544 76.671 24.2805C76.671 24.8984 76.8947 25.3707 77.3422 25.6974C77.7967 26.017 78.372 26.1768 79.068 26.1768ZM90.5044 29V12.6364H94.8297V15.5234H95.0215C95.3624 14.5646 95.9306 13.8082 96.726 13.2543C97.5215 12.7003 98.4732 12.4233 99.5811 12.4233C100.703 12.4233 101.659 12.7038 102.447 13.2649C103.235 13.8189 103.761 14.5717 104.024 15.5234H104.194C104.528 14.5859 105.132 13.8366 106.005 13.2756C106.886 12.7074 107.926 12.4233 109.127 12.4233C110.654 12.4233 111.893 12.9098 112.845 13.8828C113.803 14.8487 114.283 16.2195 114.283 17.995V29H109.755V18.8899C109.755 17.9808 109.514 17.299 109.031 16.8445C108.548 16.3899 107.944 16.1626 107.22 16.1626C106.396 16.1626 105.753 16.4254 105.291 16.951C104.83 17.4695 104.599 18.1548 104.599 19.0071V29H100.199V18.794C100.199 17.9915 99.9682 17.3523 99.5066 16.8764C99.052 16.4006 98.4519 16.1626 97.7061 16.1626C97.2019 16.1626 96.7473 16.2905 96.3425 16.5462C95.9448 16.7947 95.6287 17.1463 95.3944 17.6009C95.16 18.0483 95.0428 18.5739 95.0428 19.1776V29H90.5044ZM117.868 29V12.6364H122.193V15.5234H122.385C122.726 14.5646 123.294 13.8082 124.089 13.2543C124.885 12.7003 125.836 12.4233 126.944 12.4233C128.067 12.4233 129.022 12.7038 129.81 13.2649C130.599 13.8189 131.124 14.5717 131.387 15.5234H131.557C131.891 14.5859 132.495 13.8366 133.368 13.2756C134.249 12.7074 135.29 12.4233 136.49 12.4233C138.017 12.4233 139.256 12.9098 140.208 13.8828C141.167 14.8487 141.646 16.2195 141.646 17.995V29H137.118V18.8899C137.118 17.9808 136.877 17.299 136.394 16.8445C135.911 16.3899 135.307 16.1626 134.583 16.1626C133.759 16.1626 133.116 16.4254 132.655 16.951C132.193 17.4695 131.962 18.1548 131.962 19.0071V29H127.562V18.794C127.562 17.9915 127.331 17.3523 126.87 16.8764C126.415 16.4006 125.815 16.1626 125.069 16.1626C124.565 16.1626 124.111 16.2905 123.706 16.5462C123.308 16.7947 122.992 17.1463 122.758 17.6009C122.523 18.0483 122.406 18.5739 122.406 19.1776V29H117.868ZM149.897 29.3089C148.853 29.3089 147.923 29.1278 147.106 28.7656C146.289 28.3963 145.643 27.853 145.167 27.1357C144.698 26.4112 144.464 25.5092 144.464 24.4297C144.464 23.5206 144.631 22.7571 144.965 22.1392C145.298 21.5213 145.753 21.0241 146.328 20.6477C146.904 20.2713 147.557 19.9872 148.289 19.7955C149.027 19.6037 149.801 19.4688 150.611 19.3906C151.563 19.2912 152.33 19.1989 152.912 19.1136C153.494 19.0213 153.917 18.8864 154.18 18.7088C154.443 18.5312 154.574 18.2685 154.574 17.9205V17.8565C154.574 17.1818 154.361 16.6598 153.935 16.2905C153.516 15.9212 152.919 15.7365 152.145 15.7365C151.328 15.7365 150.678 15.9176 150.195 16.2798C149.713 16.6349 149.393 17.0824 149.237 17.6222L145.039 17.2812C145.252 16.2869 145.671 15.4276 146.296 14.7031C146.921 13.9716 147.727 13.4105 148.715 13.0199C149.709 12.6222 150.86 12.4233 152.166 12.4233C153.075 12.4233 153.945 12.5298 154.776 12.7429C155.615 12.956 156.357 13.2862 157.003 13.7337C157.656 14.1811 158.171 14.7564 158.548 15.4595C158.924 16.1555 159.112 16.9901 159.112 17.9631V29H154.808V26.7308H154.681C154.418 27.2422 154.066 27.6932 153.626 28.0838C153.186 28.4673 152.656 28.7692 152.039 28.9893C151.421 29.2024 150.707 29.3089 149.897 29.3089ZM151.197 26.1768C151.865 26.1768 152.454 26.0455 152.965 25.7827C153.477 25.5128 153.878 25.1506 154.169 24.696C154.46 24.2415 154.606 23.7266 154.606 23.1513V21.4148C154.464 21.5071 154.269 21.5923 154.02 21.6705C153.779 21.7415 153.505 21.8089 153.2 21.8729C152.894 21.9297 152.589 21.983 152.284 22.0327C151.978 22.0753 151.701 22.1143 151.453 22.1499C150.92 22.228 150.455 22.3523 150.057 22.5227C149.659 22.6932 149.35 22.924 149.13 23.2152C148.91 23.4993 148.8 23.8544 148.8 24.2805C148.8 24.8984 149.024 25.3707 149.471 25.6974C149.926 26.017 150.501 26.1768 151.197 26.1768ZM162.633 29V12.6364H167.033V15.4915H167.204C167.502 14.4759 168.003 13.7088 168.706 13.1903C169.409 12.6648 170.219 12.402 171.135 12.402C171.362 12.402 171.607 12.4162 171.87 12.4446C172.133 12.473 172.363 12.5121 172.562 12.5618V16.5888C172.349 16.5249 172.055 16.468 171.678 16.4183C171.302 16.3686 170.957 16.3438 170.645 16.3438C169.977 16.3438 169.381 16.4893 168.855 16.7805C168.336 17.0646 167.925 17.4624 167.619 17.9737C167.321 18.4851 167.172 19.0746 167.172 19.7422V29H162.633ZM179.447 7.18182V29H174.909V7.18182H179.447ZM185.884 35.1364C185.309 35.1364 184.769 35.0902 184.265 34.9979C183.768 34.9126 183.356 34.8026 183.029 34.6676L184.052 31.2798C184.585 31.4432 185.064 31.532 185.49 31.5462C185.923 31.5604 186.296 31.4609 186.609 31.2479C186.928 31.0348 187.188 30.6726 187.387 30.1612L187.653 29.4688L181.783 12.6364H186.556L189.943 24.6534H190.114L193.534 12.6364H198.338L191.978 30.7685C191.673 31.6491 191.257 32.4162 190.732 33.0696C190.213 33.7301 189.556 34.2379 188.761 34.593C187.965 34.9553 187.007 35.1364 185.884 35.1364Z" fill="#A6A6A6"/>
</svg>
