<svg width="204" height="36" viewBox="0 0 204 36" fill="none" xmlns="http://www.w3.org/2000/svg">
<path d="M47.0092 7.18182V29H42.3963V7.18182H47.0092ZM69.0538 7.18182V29H65.0694L55.5772 15.2678H55.4174V29H50.8045V7.18182H54.8528L64.2704 20.9034H64.4622V7.18182H69.0538ZM72.0341 10.9851V7.18182H89.9531V10.9851H83.2734V29H78.7138V10.9851H72.0341ZM92.9041 29V7.18182H107.606V10.9851H97.517V16.1839H106.849V19.9872H97.517V25.1967H107.648V29H92.9041ZM111.273 29V7.18182H119.881C121.529 7.18182 122.935 7.47656 124.1 8.06605C125.272 8.64844 126.163 9.47585 126.774 10.5483C127.392 11.6136 127.701 12.8672 127.701 14.3089C127.701 15.7578 127.388 17.0043 126.763 18.0483C126.138 19.0852 125.233 19.8807 124.047 20.4347C122.868 20.9886 121.44 21.2656 119.764 21.2656H114.001V17.5582H119.018C119.899 17.5582 120.631 17.4375 121.213 17.196C121.795 16.9545 122.229 16.5923 122.513 16.1094C122.804 15.6264 122.949 15.0263 122.949 14.3089C122.949 13.5845 122.804 12.9737 122.513 12.4766C122.229 11.9794 121.792 11.603 121.202 11.3473C120.62 11.0845 119.885 10.9531 118.997 10.9531H115.886V29H111.273ZM123.056 19.071L128.479 29H123.386L118.081 19.071H123.056ZM150.211 14.8203H145.545C145.46 14.2166 145.286 13.6804 145.023 13.2116C144.76 12.7358 144.423 12.331 144.011 11.9972C143.599 11.6634 143.123 11.4077 142.584 11.2301C142.051 11.0526 141.472 10.9638 140.847 10.9638C139.718 10.9638 138.734 11.2443 137.896 11.8054C137.058 12.3594 136.408 13.169 135.947 14.2344C135.485 15.2926 135.254 16.5781 135.254 18.0909C135.254 19.6463 135.485 20.9531 135.947 22.0114C136.415 23.0696 137.069 23.8686 137.907 24.4084C138.745 24.9482 139.714 25.218 140.815 25.218C141.433 25.218 142.005 25.1364 142.53 24.973C143.063 24.8097 143.535 24.5717 143.947 24.2592C144.359 23.9396 144.7 23.5526 144.97 23.098C145.247 22.6435 145.439 22.125 145.545 21.5426L150.211 21.5639C150.091 22.5653 149.789 23.5312 149.306 24.4616C148.83 25.3849 148.187 26.2124 147.378 26.9439C146.575 27.6683 145.616 28.2436 144.501 28.6697C143.393 29.0888 142.14 29.2983 140.741 29.2983C138.795 29.2983 137.055 28.858 135.52 27.9773C133.993 27.0966 132.786 25.8217 131.898 24.1527C131.018 22.4837 130.577 20.4631 130.577 18.0909C130.577 15.7116 131.025 13.6875 131.92 12.0185C132.814 10.3494 134.029 9.07812 135.563 8.20455C137.097 7.32386 138.823 6.88352 140.741 6.88352C142.005 6.88352 143.177 7.06108 144.256 7.41619C145.343 7.77131 146.305 8.28977 147.143 8.97159C147.981 9.64631 148.663 10.4737 149.189 11.4538C149.721 12.4339 150.062 13.5561 150.211 14.8203ZM173.569 18.0909C173.569 20.4702 173.118 22.4943 172.216 24.1634C171.321 25.8324 170.1 27.1072 168.551 27.9879C167.01 28.8615 165.277 29.2983 163.352 29.2983C161.414 29.2983 159.673 28.858 158.132 27.9773C156.591 27.0966 155.373 25.8217 154.478 24.1527C153.583 22.4837 153.136 20.4631 153.136 18.0909C153.136 15.7116 153.583 13.6875 154.478 12.0185C155.373 10.3494 156.591 9.07812 158.132 8.20455C159.673 7.32386 161.414 6.88352 163.352 6.88352C165.277 6.88352 167.01 7.32386 168.551 8.20455C170.1 9.07812 171.321 10.3494 172.216 12.0185C173.118 13.6875 173.569 15.7116 173.569 18.0909ZM168.892 18.0909C168.892 16.5497 168.661 15.25 168.2 14.1918C167.745 13.1335 167.102 12.331 166.271 11.7841C165.441 11.2372 164.468 10.9638 163.352 10.9638C162.237 10.9638 161.264 11.2372 160.433 11.7841C159.602 12.331 158.956 13.1335 158.494 14.1918C158.04 15.25 157.813 16.5497 157.813 18.0909C157.813 19.6321 158.04 20.9318 158.494 21.9901C158.956 23.0483 159.602 23.8509 160.433 24.3977C161.264 24.9446 162.237 25.218 163.352 25.218C164.468 25.218 165.441 24.9446 166.271 24.3977C167.102 23.8509 167.745 23.0483 168.2 21.9901C168.661 20.9318 168.892 19.6321 168.892 18.0909ZM176.986 7.18182H182.675L188.684 21.8409H188.939L194.948 7.18182H200.637V29H196.162V14.799H195.981L190.335 28.8935H187.288L181.642 14.7457H181.461V29H176.986V7.18182Z" fill="#A6A6A6"/>
<rect x="0.5" y="3" width="30" height="30" rx="3" fill="#A6A6A6"/>
<rect x="4.5" y="10" width="2" height="12" fill="white"/>
<rect x="9.5" y="7" width="2" height="18" fill="white"/>
<rect x="14.5" y="7" width="2" height="18" fill="white"/>
<rect x="19.5" y="7" width="2" height="18" fill="white"/>
<path d="M5.5 27C8.33333 29.2639 16.5 32.4333 26.5 27" stroke="white" stroke-width="2" stroke-linecap="round"/>
<rect x="24.5" y="10" width="2" height="12" fill="white"/>
</svg>
