<svg width="31" height="31" viewBox="0 0 31 31" fill="none" xmlns="http://www.w3.org/2000/svg">
<path d="M28.2818 0.000211002H2.71831C2.43097 -0.00377981 2.14562 0.0488751 1.87862 0.155168C1.61163 0.261459 1.36816 0.419308 1.16217 0.619701C0.956177 0.820086 0.791674 1.05909 0.678057 1.32306C0.564441 1.58703 0.503937 1.8708 0.5 2.15816V28.0235C0.503937 28.3108 0.564441 28.5945 0.678057 28.8586C0.791674 29.1224 0.956177 29.3615 1.16217 29.5619C1.36816 29.7623 1.61163 29.9201 1.87862 30.0265C2.14562 30.1327 2.43097 30.1853 2.71831 30.1814H28.2818C28.5691 30.1853 28.8544 30.1327 29.1215 30.0265C29.3885 29.9201 29.6318 29.7623 29.8379 29.5619C30.0438 29.3615 30.2084 29.1224 30.322 28.8586C30.4357 28.5945 30.4962 28.3108 30.5 28.0235V2.15816C30.4962 1.8708 30.4357 1.58703 30.322 1.32306C30.2084 1.05909 30.0438 0.820086 29.8379 0.619701C29.6318 0.419308 29.3885 0.261459 29.1215 0.155168C28.8544 0.0488751 28.5691 -0.00377981 28.2818 0.000211002ZM9.59961 25.2618H5.07244V11.6803H9.59961V25.2618ZM7.33602 9.7789C6.71167 9.7789 6.11289 9.53088 5.6714 9.08939C5.22993 8.6479 4.98189 8.04913 4.98189 7.42477C4.98189 6.80042 5.22993 6.20164 5.6714 5.76015C6.11289 5.31866 6.71167 5.07064 7.33602 5.07064C7.66757 5.03305 8.0033 5.0659 8.32126 5.16705C8.63921 5.2682 8.93223 5.43537 9.18109 5.65761C9.42996 5.87984 9.62908 6.15215 9.76542 6.45668C9.90175 6.76122 9.97223 7.09111 9.97223 7.42477C9.97223 7.75844 9.90175 8.08833 9.76542 8.39286C9.62908 8.6974 9.42996 8.9697 9.18109 9.19194C8.93223 9.41418 8.63921 9.58134 8.32126 9.6825C8.0033 9.78364 7.66757 9.8165 7.33602 9.7789ZM25.9276 25.2618H21.4005V17.9732C21.4005 16.1471 20.7515 14.955 19.1067 14.955C18.5976 14.9587 18.1019 15.1184 17.6865 15.4125C17.2708 15.7066 16.9556 16.1209 16.7828 16.5998C16.6646 16.9546 16.6134 17.3282 16.6318 17.7015V25.2468H12.1046V11.6652H16.6318V13.5817C17.043 12.8681 17.6413 12.2802 18.3618 11.8813C19.0826 11.4824 19.8983 11.2877 20.7213 11.3181C23.7394 11.3181 25.9276 13.2648 25.9276 17.4449V25.2618Z" fill="#333333"/>
</svg>
