<svg width="147" height="36" viewBox="0 0 147 36" fill="none" xmlns="http://www.w3.org/2000/svg">
<path d="M68.6456 7.18182V29H64.6612L55.169 15.2678H55.0092V29H50.3963V7.18182H54.4446L63.8622 20.9034H64.054V7.18182H68.6456ZM79.7651 29.3196C78.1103 29.3196 76.6792 28.968 75.4718 28.2649C74.2715 27.5547 73.3446 26.5675 72.6912 25.3033C72.0378 24.032 71.7111 22.5582 71.7111 20.8821C71.7111 19.1918 72.0378 17.7145 72.6912 16.4503C73.3446 15.179 74.2715 14.1918 75.4718 13.4886C76.6792 12.7784 78.1103 12.4233 79.7651 12.4233C81.4199 12.4233 82.8475 12.7784 84.0478 13.4886C85.2551 14.1918 86.1855 15.179 86.839 16.4503C87.4924 17.7145 87.8191 19.1918 87.8191 20.8821C87.8191 22.5582 87.4924 24.032 86.839 25.3033C86.1855 26.5675 85.2551 27.5547 84.0478 28.2649C82.8475 28.968 81.4199 29.3196 79.7651 29.3196ZM79.7864 25.804C80.5392 25.804 81.1678 25.5909 81.6721 25.1648C82.1763 24.7315 82.5563 24.142 82.812 23.3963C83.0748 22.6506 83.2061 21.8018 83.2061 20.8501C83.2061 19.8984 83.0748 19.0497 82.812 18.304C82.5563 17.5582 82.1763 16.9687 81.6721 16.5355C81.1678 16.1023 80.5392 15.8857 79.7864 15.8857C79.0265 15.8857 78.3873 16.1023 77.8688 16.5355C77.3574 16.9687 76.9703 17.5582 76.7076 18.304C76.4519 19.0497 76.324 19.8984 76.324 20.8501C76.324 21.8018 76.4519 22.6506 76.7076 23.3963C76.9703 24.142 77.3574 24.7315 77.8688 25.1648C78.3873 25.5909 79.0265 25.804 79.7864 25.804ZM99.4739 12.6364V16.0455H89.6195V12.6364H99.4739ZM91.8567 8.71591H96.3951V23.9716C96.3951 24.3906 96.459 24.7173 96.5868 24.9517C96.7147 25.179 96.8922 25.3388 97.1195 25.4311C97.3539 25.5234 97.6238 25.5696 97.9292 25.5696C98.1422 25.5696 98.3553 25.5518 98.5684 25.5163C98.7814 25.4737 98.9448 25.4418 99.0584 25.4205L99.7722 28.7976C99.5449 28.8686 99.2253 28.9503 98.8134 29.0426C98.4015 29.142 97.9007 29.2024 97.3113 29.2237C96.2175 29.2663 95.2587 29.1207 94.4348 28.7869C93.6181 28.4531 92.9824 27.9347 92.5279 27.2315C92.0733 26.5284 91.8496 25.6406 91.8567 24.5682V8.71591ZM102.43 29V12.6364H106.969V29H102.43ZM104.71 10.527C104.035 10.527 103.456 10.3033 102.974 9.85582C102.498 9.40128 102.26 8.85795 102.26 8.22585C102.26 7.60085 102.498 7.06463 102.974 6.61719C103.456 6.16264 104.035 5.93537 104.71 5.93537C105.385 5.93537 105.96 6.16264 106.436 6.61719C106.919 7.06463 107.16 7.60085 107.16 8.22585C107.16 8.85795 106.919 9.40128 106.436 9.85582C105.96 10.3033 105.385 10.527 104.71 10.527ZM117.998 29.3196C116.343 29.3196 114.912 28.968 113.704 28.2649C112.504 27.5547 111.577 26.5675 110.924 25.3033C110.27 24.032 109.944 22.5582 109.944 20.8821C109.944 19.1918 110.27 17.7145 110.924 16.4503C111.577 15.179 112.504 14.1918 113.704 13.4886C114.912 12.7784 116.343 12.4233 117.998 12.4233C119.652 12.4233 121.08 12.7784 122.28 13.4886C123.488 14.1918 124.418 15.179 125.071 16.4503C125.725 17.7145 126.051 19.1918 126.051 20.8821C126.051 22.5582 125.725 24.032 125.071 25.3033C124.418 26.5675 123.488 27.5547 122.28 28.2649C121.08 28.968 119.652 29.3196 117.998 29.3196ZM118.019 25.804C118.772 25.804 119.4 25.5909 119.904 25.1648C120.409 24.7315 120.789 24.142 121.044 23.3963C121.307 22.6506 121.439 21.8018 121.439 20.8501C121.439 19.8984 121.307 19.0497 121.044 18.304C120.789 17.5582 120.409 16.9687 119.904 16.5355C119.4 16.1023 118.772 15.8857 118.019 15.8857C117.259 15.8857 116.62 16.1023 116.101 16.5355C115.59 16.9687 115.203 17.5582 114.94 18.304C114.684 19.0497 114.556 19.8984 114.556 20.8501C114.556 21.8018 114.684 22.6506 114.94 23.3963C115.203 24.142 115.59 24.7315 116.101 25.1648C116.62 25.5909 117.259 25.804 118.019 25.804ZM133.541 19.5398V29H129.002V12.6364H133.328V15.5234H133.52C133.882 14.5717 134.489 13.8189 135.341 13.2649C136.194 12.7038 137.227 12.4233 138.441 12.4233C139.578 12.4233 140.569 12.6719 141.414 13.169C142.259 13.6662 142.916 14.3764 143.385 15.2997C143.853 16.2159 144.088 17.3097 144.088 18.581V29H139.549V19.3906C139.556 18.3892 139.301 17.608 138.782 17.0469C138.264 16.4787 137.55 16.1946 136.641 16.1946C136.03 16.1946 135.49 16.326 135.022 16.5888C134.56 16.8516 134.198 17.2351 133.935 17.7393C133.679 18.2365 133.548 18.8366 133.541 19.5398Z" fill="#A6A6A6"/>
<path d="M28.9304 14.4545V29H26.2741L19.946 19.8452H19.8395V29H16.7642V14.4545H19.4631L25.7415 23.6023H25.8693V14.4545H28.9304Z" fill="#A6A6A6"/>
<rect x="9.5" y="9" width="28" height="26" stroke="#A6A6A6" stroke-width="2"/>
<path d="M3.16145 2L8.87574 7H35.8386L30.1243 2H3.16145Z" stroke="#A6A6A6" stroke-width="2"/>
<path d="M8.5 8L0.5 1V29L8.5 36V8Z" fill="#A6A6A6"/>
</svg>
