<svg width="11" height="82" viewBox="0 0 11 82" fill="none" xmlns="http://www.w3.org/2000/svg">
<path d="M10.126 77.59C10.126 78.3647 10.028 79.0647 9.832 79.69C9.62667 80.3153 9.33267 80.8567 8.95 81.314L8.026 80.908C8.39 80.432 8.66067 79.9327 8.838 79.41C9.01533 78.8873 9.104 78.2807 9.104 77.59C9.104 76.75 8.95 76.1293 8.642 75.728C8.32467 75.3173 7.90933 75.112 7.396 75.112C6.98533 75.112 6.65867 75.2613 6.416 75.56C6.17333 75.8493 5.982 76.3393 5.842 77.03L5.548 78.486C5.36133 79.3633 5.058 80.0213 4.638 80.46C4.20867 80.8893 3.63933 81.104 2.93 81.104C2.342 81.104 1.82867 80.9547 1.39 80.656C0.951333 80.348 0.610666 79.9233 0.368 79.382C0.125333 78.8407 0.00399919 78.2153 0.00399916 77.506C0.00399913 76.8433 0.111332 76.2273 0.325999 75.658C0.531333 75.0887 0.829999 74.608 1.222 74.216L2.118 74.622C1.73533 75.042 1.46 75.4853 1.292 75.952C1.11467 76.4187 1.026 76.9413 1.026 77.52C1.026 78.2573 1.19867 78.8453 1.544 79.284C1.88 79.7227 2.328 79.942 2.888 79.942C3.336 79.942 3.69067 79.8067 3.952 79.536C4.21333 79.256 4.40467 78.8033 4.526 78.178L4.834 76.722C5.03 75.7793 5.32867 75.084 5.73 74.636C6.122 74.1787 6.65867 73.95 7.34 73.95C7.89067 73.95 8.376 74.0993 8.796 74.398C9.216 74.6873 9.54267 75.1073 9.776 75.658C10.0093 76.1993 10.126 76.8433 10.126 77.59ZM10.126 68.7037C10.126 69.3851 9.98133 69.9731 9.692 70.4677C9.39333 70.9624 8.978 71.3451 8.446 71.6157C7.90467 71.8771 7.27467 72.0077 6.556 72.0077C5.47333 72.0077 4.624 71.7137 4.008 71.1257C3.38267 70.5377 3.07 69.7304 3.07 68.7037C3.07 68.2837 3.14467 67.8684 3.294 67.4577C3.44333 67.0471 3.65333 66.7064 3.924 66.4357L4.75 66.8277C4.48867 67.0984 4.29733 67.3971 4.176 67.7237C4.05467 68.0411 3.994 68.3444 3.994 68.6337C3.994 69.3431 4.218 69.8891 4.666 70.2717C5.10467 70.6544 5.73933 70.8457 6.57 70.8457C7.382 70.8457 8.026 70.6544 8.502 70.2717C8.96867 69.8891 9.202 69.3431 9.202 68.6337C9.202 68.3444 9.14133 68.0411 9.02 67.7237C8.89867 67.3971 8.70267 67.0984 8.432 66.8277L9.258 66.4357C9.52867 66.7064 9.74333 67.0517 9.902 67.4717C10.0513 67.8824 10.126 68.2931 10.126 68.7037ZM10 64.3722L3.196 64.3723L3.196 63.2663L4.414 63.2663C3.59267 62.9023 3.14 62.1556 3.056 61.0262L3.014 60.6203L3.994 60.5362L4.078 61.2502C4.134 61.8943 4.33933 62.3843 4.694 62.7203C5.03933 63.0563 5.51533 63.2243 6.122 63.2243L10 63.2242L10 64.3722ZM10.126 55.8737C10.126 56.5364 9.98133 57.1104 9.692 57.5957C9.40267 58.081 8.99667 58.459 8.474 58.7297C7.942 58.991 7.31667 59.1217 6.598 59.1217C5.87933 59.1217 5.25867 58.991 4.736 58.7297C4.204 58.459 3.79333 58.081 3.504 57.5957C3.21467 57.1104 3.07 56.5364 3.07 55.8737C3.07 55.2204 3.21467 54.651 3.504 54.1657C3.79333 53.671 4.204 53.293 4.736 53.0317C5.25867 52.761 5.87933 52.6257 6.598 52.6257C7.31667 52.6257 7.942 52.761 8.474 53.0317C8.99667 53.293 9.40267 53.671 9.692 54.1657C9.98133 54.651 10.126 55.2204 10.126 55.8737ZM9.216 55.8737C9.216 55.239 8.992 54.7304 8.544 54.3477C8.08667 53.965 7.438 53.7737 6.598 53.7737C5.74867 53.7737 5.1 53.965 4.652 54.3477C4.204 54.7304 3.98 55.239 3.98 55.8737C3.98 56.5177 4.204 57.031 4.652 57.4137C5.1 57.787 5.74867 57.9737 6.598 57.9737C7.438 57.9737 8.08667 57.787 8.544 57.4137C8.992 57.031 9.216 56.5177 9.216 55.8737ZM10.126 48.1014C10.126 48.7921 9.92533 49.3147 9.524 49.6694C9.11333 50.0147 8.52067 50.1874 7.746 50.1874L0.129998 50.1874L0.129998 49.0534L7.662 49.0534C8.66067 49.0534 9.16 48.6567 9.16 47.8634C9.16 47.6301 9.132 47.4201 9.076 47.2334L10.028 47.2614C10.0933 47.5507 10.126 47.8307 10.126 48.1014ZM10.126 43.2238C10.126 43.9145 9.92533 44.4372 9.524 44.7918C9.11333 45.1372 8.52066 45.3098 7.746 45.3098L0.129998 45.3098L0.129998 44.1758L7.662 44.1758C8.66066 44.1758 9.16 43.7792 9.16 42.9858C9.16 42.7525 9.132 42.5425 9.076 42.3558L10.028 42.3838C10.0933 42.6732 10.126 42.9532 10.126 43.2238ZM10.126 33.5115C10.126 34.1182 9.98133 34.6502 9.692 35.1075C9.40266 35.5555 8.99666 35.9055 8.474 36.1575C7.942 36.4002 7.31666 36.5215 6.598 36.5215C5.87 36.5215 5.24466 36.4002 4.722 36.1575C4.19 35.9055 3.784 35.5555 3.504 35.1075C3.21466 34.6502 3.07 34.1182 3.07 33.5115C3.07 32.9795 3.18666 32.5129 3.42 32.1115C3.65333 31.7009 3.97533 31.3975 4.386 31.2015L0.129997 31.2015L0.129997 30.0675L10 30.0675L10 31.1735L8.754 31.1735C9.18333 31.3695 9.51933 31.6729 9.762 32.0835C10.0047 32.4942 10.126 32.9702 10.126 33.5115ZM9.216 33.2735C9.216 32.6389 8.992 32.1302 8.544 31.7475C8.08666 31.3649 7.438 31.1735 6.598 31.1735C5.74866 31.1735 5.1 31.3649 4.652 31.7475C4.204 32.1302 3.98 32.6389 3.98 33.2735C3.98 33.9175 4.204 34.4309 4.652 34.8135C5.1 35.1869 5.74866 35.3735 6.598 35.3735C7.438 35.3735 8.08666 35.1869 8.544 34.8135C8.992 34.4309 9.216 33.9175 9.216 33.2735ZM10.126 24.3764C10.126 25.0391 9.98133 25.6131 9.692 26.0984C9.40266 26.5838 8.99666 26.9618 8.474 27.2324C7.942 27.4938 7.31666 27.6244 6.598 27.6244C5.87933 27.6244 5.25866 27.4938 4.736 27.2324C4.204 26.9618 3.79333 26.5838 3.504 26.0984C3.21466 25.6131 3.07 25.0391 3.07 24.3764C3.07 23.7231 3.21466 23.1538 3.504 22.6684C3.79333 22.1738 4.204 21.7958 4.736 21.5344C5.25866 21.2638 5.87933 21.1284 6.598 21.1284C7.31666 21.1284 7.942 21.2638 8.474 21.5344C8.99666 21.7958 9.40266 22.1738 9.692 22.6684C9.98133 23.1538 10.126 23.7231 10.126 24.3764ZM9.216 24.3764C9.216 23.7418 8.992 23.2331 8.544 22.8504C8.08666 22.4678 7.438 22.2764 6.598 22.2764C5.74866 22.2764 5.1 22.4678 4.652 22.8504C4.204 23.2331 3.98 23.7418 3.98 24.3764C3.98 25.0204 4.204 25.5338 4.652 25.9164C5.1 26.2898 5.74866 26.4764 6.598 26.4764C7.438 26.4764 8.08666 26.2898 8.544 25.9164C8.992 25.5338 9.216 25.0204 9.216 24.3764ZM10 16.9798L3.196 19.5138L3.196 18.3238L8.67 16.4058L3.196 14.4178L3.196 13.4518L8.684 11.4918L3.196 9.54584L3.196 8.41184L10 10.9598L10 12.0378L4.722 13.9558L10 15.8878L10 16.9798ZM10 6.27936L3.196 6.27936L3.196 5.17336L4.358 5.17336C3.92866 4.94936 3.60666 4.63203 3.392 4.22136C3.17733 3.81069 3.07 3.34869 3.07 2.83536C3.07 1.22069 3.966 0.41336 5.758 0.41336L10 0.41336L10 1.54736L5.828 1.54736C5.19333 1.54736 4.73133 1.67336 4.442 1.92536C4.14333 2.16803 3.994 2.56003 3.994 3.10136C3.994 3.72669 4.19 4.22603 4.582 4.59936C4.96466 4.96336 5.478 5.14536 6.122 5.14536L10 5.14536L10 6.27936Z" fill="#333333"/>
</svg>
