<svg width="182" height="38" viewBox="0 0 182 38" fill="none" xmlns="http://www.w3.org/2000/svg">
<path d="M59.1131 9.18182H63.726V23.3509C63.726 24.9418 63.3461 26.3338 62.5861 27.527C61.8333 28.7202 60.7786 29.6506 59.4221 30.3182C58.0655 30.9787 56.4853 31.3089 54.6813 31.3089C52.8702 31.3089 51.2864 30.9787 49.9299 30.3182C48.5733 29.6506 47.5186 28.7202 46.7658 27.527C46.013 26.3338 45.6365 24.9418 45.6365 23.3509V9.18182H50.2495V22.9567C50.2495 23.7876 50.4306 24.5263 50.7928 25.1726C51.1621 25.8189 51.6806 26.3267 52.3482 26.696C53.0158 27.0653 53.7935 27.25 54.6813 27.25C55.5762 27.25 56.3539 27.0653 57.0144 26.696C57.682 26.3267 58.1969 25.8189 58.5591 25.1726C58.9284 24.5263 59.1131 23.7876 59.1131 22.9567V9.18182ZM71.9744 21.5398V31H67.4361V14.6364H71.7614V17.5234H71.9531C72.3153 16.5717 72.9226 15.8189 73.7749 15.2649C74.6271 14.7038 75.6605 14.4233 76.875 14.4233C78.0114 14.4233 79.0021 14.6719 79.8473 15.169C80.6925 15.6662 81.3494 16.3764 81.8182 17.2997C82.2869 18.2159 82.5213 19.3097 82.5213 20.581V31H77.983V21.3906C77.9901 20.3892 77.7344 19.608 77.2159 19.0469C76.6974 18.4787 75.9837 18.1946 75.0746 18.1946C74.4638 18.1946 73.924 18.326 73.4553 18.5888C72.9936 18.8516 72.6314 19.2351 72.3686 19.7393C72.1129 20.2365 71.9815 20.8366 71.9744 21.5398ZM99.7132 19.3026L95.5584 19.5582C95.4874 19.2031 95.3347 18.8835 95.1003 18.5994C94.8659 18.3082 94.557 18.0774 94.1735 17.907C93.7971 17.7294 93.3461 17.6406 92.8205 17.6406C92.1174 17.6406 91.5243 17.7898 91.0414 18.0881C90.5584 18.3793 90.3169 18.7699 90.3169 19.2599C90.3169 19.6506 90.4732 19.9808 90.7857 20.2507C91.0982 20.5206 91.6344 20.7372 92.3944 20.9006L95.356 21.4972C96.9469 21.8239 98.133 22.3494 98.9142 23.0739C99.6955 23.7983 100.086 24.75 100.086 25.929C100.086 27.0014 99.7701 27.9425 99.138 28.7521C98.513 29.5618 97.6536 30.1939 96.5598 30.6484C95.4732 31.0959 94.2196 31.3196 92.7992 31.3196C90.633 31.3196 88.9071 30.8686 87.6216 29.9666C86.3432 29.0575 85.5939 27.8217 85.3738 26.2592L89.8375 26.0249C89.9725 26.6854 90.2992 27.1896 90.8176 27.5376C91.3361 27.8786 92.0002 28.049 92.8098 28.049C93.6053 28.049 94.2445 27.8963 94.7275 27.5909C95.2175 27.2784 95.4661 26.8771 95.4732 26.3871C95.4661 25.9751 95.2921 25.6378 94.9512 25.375C94.6103 25.1051 94.0847 24.8991 93.3745 24.7571L90.5407 24.1925C88.9426 23.8729 87.753 23.3189 86.9718 22.5305C86.1976 21.7422 85.8105 20.7372 85.8105 19.5156C85.8105 18.4645 86.0946 17.5589 86.6628 16.799C87.2381 16.0391 88.0442 15.4531 89.0811 15.0412C90.1252 14.6293 91.3468 14.4233 92.7459 14.4233C94.8127 14.4233 96.4391 14.8601 97.6252 15.7337C98.8184 16.6072 99.5144 17.7969 99.7132 19.3026ZM102.944 37.1364V14.6364H107.418V17.3849H107.621C107.82 16.9446 108.107 16.4972 108.484 16.0426C108.867 15.581 109.364 15.1974 109.975 14.892C110.593 14.5795 111.36 14.4233 112.276 14.4233C113.469 14.4233 114.57 14.7358 115.579 15.3608C116.587 15.9787 117.393 16.9126 117.997 18.1626C118.601 19.4055 118.903 20.9645 118.903 22.8395C118.903 24.6648 118.608 26.206 118.018 27.4631C117.436 28.7131 116.641 29.6612 115.632 30.3075C114.631 30.9467 113.509 31.2663 112.266 31.2663C111.385 31.2663 110.636 31.1207 110.018 30.8295C109.407 30.5384 108.906 30.1726 108.516 29.7322C108.125 29.2848 107.827 28.8338 107.621 28.3793H107.482V37.1364H102.944ZM107.386 22.8182C107.386 23.7912 107.521 24.6399 107.791 25.3643C108.061 26.0888 108.452 26.6534 108.963 27.0582C109.474 27.456 110.096 27.6548 110.827 27.6548C111.566 27.6548 112.191 27.4524 112.702 27.0476C113.214 26.6357 113.601 26.0675 113.864 25.343C114.134 24.6115 114.268 23.7699 114.268 22.8182C114.268 21.8736 114.137 21.0426 113.874 20.3253C113.612 19.608 113.224 19.0469 112.713 18.642C112.202 18.2372 111.573 18.0348 110.827 18.0348C110.089 18.0348 109.464 18.2301 108.952 18.6207C108.448 19.0114 108.061 19.5653 107.791 20.2827C107.521 21 107.386 21.8452 107.386 22.8182ZM126.467 9.18182V31H121.928V9.18182H126.467ZM134.768 31.3089C133.724 31.3089 132.794 31.1278 131.977 30.7656C131.16 30.3963 130.514 29.853 130.038 29.1357C129.569 28.4112 129.335 27.5092 129.335 26.4297C129.335 25.5206 129.502 24.7571 129.836 24.1392C130.17 23.5213 130.624 23.0241 131.199 22.6477C131.775 22.2713 132.428 21.9872 133.16 21.7955C133.898 21.6037 134.672 21.4688 135.482 21.3906C136.434 21.2912 137.201 21.1989 137.783 21.1136C138.366 21.0213 138.788 20.8864 139.051 20.7088C139.314 20.5312 139.445 20.2685 139.445 19.9205V19.8565C139.445 19.1818 139.232 18.6598 138.806 18.2905C138.387 17.9212 137.79 17.7365 137.016 17.7365C136.199 17.7365 135.55 17.9176 135.067 18.2798C134.584 18.6349 134.264 19.0824 134.108 19.6222L129.91 19.2812C130.123 18.2869 130.542 17.4276 131.167 16.7031C131.792 15.9716 132.599 15.4105 133.586 15.0199C134.58 14.6222 135.731 14.4233 137.037 14.4233C137.947 14.4233 138.817 14.5298 139.648 14.7429C140.486 14.956 141.228 15.2862 141.874 15.7337C142.528 16.1811 143.042 16.7564 143.419 17.4595C143.795 18.1555 143.983 18.9901 143.983 19.9631V31H139.68V28.7308H139.552C139.289 29.2422 138.937 29.6932 138.497 30.0838C138.057 30.4673 137.528 30.7692 136.91 30.9893C136.292 31.2024 135.578 31.3089 134.768 31.3089ZM136.068 28.1768C136.736 28.1768 137.325 28.0455 137.836 27.7827C138.348 27.5128 138.749 27.1506 139.04 26.696C139.331 26.2415 139.477 25.7266 139.477 25.1513V23.4148C139.335 23.5071 139.14 23.5923 138.891 23.6705C138.65 23.7415 138.376 23.8089 138.071 23.8729C137.765 23.9297 137.46 23.983 137.155 24.0327C136.849 24.0753 136.572 24.1143 136.324 24.1499C135.791 24.228 135.326 24.3523 134.928 24.5227C134.53 24.6932 134.221 24.924 134.001 25.2152C133.781 25.4993 133.671 25.8544 133.671 26.2805C133.671 26.8984 133.895 27.3707 134.342 27.6974C134.797 28.017 135.372 28.1768 136.068 28.1768ZM161.119 19.3026L156.965 19.5582C156.894 19.2031 156.741 18.8835 156.507 18.5994C156.272 18.3082 155.963 18.0774 155.58 17.907C155.203 17.7294 154.752 17.6406 154.227 17.6406C153.524 17.6406 152.931 17.7898 152.448 18.0881C151.965 18.3793 151.723 18.7699 151.723 19.2599C151.723 19.6506 151.879 19.9808 152.192 20.2507C152.504 20.5206 153.041 20.7372 153.801 20.9006L156.762 21.4972C158.353 21.8239 159.539 22.3494 160.32 23.0739C161.102 23.7983 161.492 24.75 161.492 25.929C161.492 27.0014 161.176 27.9425 160.544 28.7521C159.919 29.5618 159.06 30.1939 157.966 30.6484C156.879 31.0959 155.626 31.3196 154.205 31.3196C152.039 31.3196 150.313 30.8686 149.028 29.9666C147.749 29.0575 147 27.8217 146.78 26.2592L151.244 26.0249C151.379 26.6854 151.705 27.1896 152.224 27.5376C152.742 27.8786 153.406 28.049 154.216 28.049C155.012 28.049 155.651 27.8963 156.134 27.5909C156.624 27.2784 156.872 26.8771 156.879 26.3871C156.872 25.9751 156.698 25.6378 156.357 25.375C156.017 25.1051 155.491 24.8991 154.781 24.7571L151.947 24.1925C150.349 23.8729 149.159 23.3189 148.378 22.5305C147.604 21.7422 147.217 20.7372 147.217 19.5156C147.217 18.4645 147.501 17.5589 148.069 16.799C148.644 16.0391 149.45 15.4531 150.487 15.0412C151.531 14.6293 152.753 14.4233 154.152 14.4233C156.219 14.4233 157.845 14.8601 159.031 15.7337C160.225 16.6072 160.921 17.7969 161.119 19.3026ZM168.888 21.5398V31H164.35V9.18182H168.761V17.5234H168.952C169.322 16.5575 169.918 15.8011 170.742 15.2543C171.566 14.7003 172.599 14.4233 173.842 14.4233C174.979 14.4233 175.969 14.6719 176.815 15.169C177.667 15.6591 178.327 16.3658 178.796 17.2891C179.272 18.2053 179.506 19.3026 179.499 20.581V31H174.961V21.3906C174.968 20.3821 174.712 19.5973 174.194 19.0362C173.683 18.4751 172.965 18.1946 172.042 18.1946C171.424 18.1946 170.877 18.326 170.401 18.5888C169.933 18.8516 169.563 19.2351 169.293 19.7393C169.031 20.2365 168.896 20.8366 168.888 21.5398Z" fill="#A6A6A6"/>
<rect x="11.5" width="12" height="9" fill="#A6A6A6"/>
<rect x="0.5" y="23" width="34" height="9" fill="#A6A6A6"/>
<rect x="24.5" y="14" width="10" height="18" fill="#A6A6A6"/>
<rect x="0.5" y="14" width="10" height="18" fill="#A6A6A6"/>
</svg>
